#!OML:ASF F:\VICON\USERDATA\INSTALL\rory3\rory3.ASF
:FULLY-SPECIFIED
:DEGREES
1884
root -1.56777 15.7532 -4.08473 164.034 148.922 181.534
lowerback 23.529 -1.13203 -5.57255
upperback 9.0738 -2.42692 0.57471
thorax -2.83494 -1.2345 4.40127
lowerneck -6.36704 -16.3293 -19.4253
upperneck 10.0534 -22.3906 16.8647
head 8.29138 -10.6589 5.79195
rclavicle -3.51352e-014 1.38155e-014
rhumerus -24.4348 26.1768 -83.2783
rradius 78.0175
rwrist 17.9346
rhand -32.6149 12.6871
rfingers 7.12502
rthumb -5.8424 -17.2123
lclavicle -3.51352e-014 1.38155e-014
lhumerus -34.7677 -4.27052 75.6677
lradius 85.944
lwrist -22.8436
lhand -36.5326 10.8021
lfingers 7.12502
lthumb -9.62368 40.5623
rfemur -49.9872 -26.2325 19.7851
rtibia 99.9315
rfoot -12.2547 -4.22617
rtoes 0.977814
lfemur -87.359 55.3498 -31.713
ltibia 135.952
lfoot -12.9181 -13.3962
ltoes -19.0668
1885
root -1.56543 15.7561 -4.08215 164.097 148.97 181.506
lowerback 23.6153 -1.12504 -5.48865
upperback 9.04132 -2.40396 0.60683
thorax -2.91896 -1.21851 4.38708
lowerneck -6.2305 -16.4333 -19.4716
upperneck 9.88192 -22.5496 16.9682
head 8.26051 -10.74 5.81027
rclavicle -1.72446e-014 8.15017e-015
rhumerus -24.6157 26.7867 -83.5884
rradius 77.8202
rwrist 18.5868
rhand -32.5587 12.9602
rfingers 7.12502
rthumb -5.7882 -16.9408
lclavicle -1.72446e-014 8.15017e-015
lhumerus -34.7352 -4.46049 75.7943
lradius 85.3784
lwrist -23.269
lhand -37.9086 11.7342
lfingers 7.12502
lthumb -10.9511 41.4286
rfemur -50.0659 -26.2065 19.8332
rtibia 99.8705
rfoot -12.0874 -4.19868
rtoes 1.3663
lfemur -87.4752 55.5462 -31.8053
ltibia 135.96
lfoot -12.9588 -13.4456
ltoes -18.4855
1886
root -1.56303 15.7619 -4.0797 164.414 148.766 182.048
lowerback 23.6784 -1.08628 -5.88681
upperback 9.05931 -2.44695 0.501954
thorax -2.90746 -1.24525 4.51286
lowerneck -6.13961 -16.5378 -19.495
upperneck 9.61284 -22.6915 17.0819
head 8.20112 -10.8111 5.82986
rclavicle -7.23079e-015 8.54774e-015
rhumerus -24.7743 27.3202 -83.8529
rradius 77.5893
rwrist 19.3343
rhand -32.4555 13.4526
rfingers 7.12502
rthumb -5.68848 -16.4511
lclavicle -7.23079e-015 8.54774e-015
lhumerus -34.4991 -4.58441 75.9541
lradius 84.7311
lwrist -23.3288
lhand -39.2618 12.8433
lfingers 7.12502
lthumb -12.2561 42.4642
rfemur -50.1376 -26.419 19.2063
rtibia 99.8662
rfoot -11.8795 -4.1002
rtoes 1.75711
lfemur -87.087 55.2339 -32.2709
ltibia 135.82
lfoot -13.0533 -13.1766
ltoes -17.7172
1887
root -1.55779 15.7692 -4.07921 164.545 148.645 182.137
lowerback 23.7055 -1.11812 -5.79266
upperback 9.10841 -2.46797 0.437804
thorax -2.87335 -1.25358 4.39433
lowerneck -6.05378 -16.6666 -19.369
upperneck 9.27761 -22.8789 17.2289
head 8.11668 -10.8986 5.83244
rclavicle -6.28657e-015 -1.15295e-014
rhumerus -24.8921 27.5598 -84.1827
rradius 77.265
rwrist 20.2712
rhand -32.2866 14.0561
rfingers 7.12502
rthumb -5.52544 -15.8519
lclavicle -6.28657e-015 -1.15295e-014
lhumerus -34.1466 -4.72016 76.0058
lradius 84.1348
lwrist -23.0594
lhand -40.1258 13.5748
lfingers 7.12502
lthumb -13.089 43.1441
rfemur -50.1472 -26.5535 19.0418
rtibia 99.8243
rfoot -11.8433 -4.03656
rtoes 2.36769
lfemur -86.9606 54.9828 -32.4798
ltibia 135.706
lfoot -13.1019 -12.8821
ltoes -16.7323
1888
root -1.55257 15.7765 -4.07869 164.703 148.502 182.28
lowerback 23.7453 -1.14026 -5.77196
upperback 9.14749 -2.49466 0.353439
thorax -2.8526 -1.26501 4.29796
lowerneck -5.98808 -16.7655 -19.2481
upperneck 9.0626 -23.0426 17.4095
head 8.07656 -10.9705 5.84839
rclavicle -1.07841e-014 2.11706e-014
rhumerus -25.088 27.77 -84.5721
rradius 76.9509
rwrist 21.0482
rhand -32.1939 14.5966
rfingers 7.12502
rthumb -5.43595 -15.3137
lclavicle -1.07841e-014 2.11706e-014
lhumerus -33.916 -4.80469 75.9921
lradius 83.7424
lwrist -22.65
lhand -40.6129 14.425
lfingers 7.12502
lthumb -13.5585 43.9636
rfemur -50.1571 -26.6986 18.8346
rtibia 99.8019
rfoot -11.7957 -3.97388
rtoes 2.47269
lfemur -86.8584 54.7285 -32.8865
ltibia 135.563
lfoot -13.2705 -12.3126
ltoes -16.3444
1889
root -1.54358 15.7768 -4.07624 164.679 148.617 181.847
lowerback 23.6298 -1.21045 -5.2493
upperback 9.15879 -2.46097 0.436761
thorax -2.81346 -1.24129 4.07733
lowerneck -5.85956 -16.8457 -19.3173
upperneck 8.91085 -23.1855 17.6253
head 8.07079 -11.0391 5.90754
rclavicle 3.87133e-014 -1.96797e-014
rhumerus -25.3127 28.1352 -84.9132
rradius 76.5361
rwrist 21.7886
rhand -32.0774 14.9001
rfingers 7.12502
rthumb -5.32351 -15.013
lclavicle 3.87133e-014 -1.96797e-014
lhumerus -33.7162 -4.6622 76.0577
lradius 83.3937
lwrist -22.2289
lhand -40.8098 15.3365
lfingers 7.12502
lthumb -13.7483 44.8622
rfemur -50.3228 -26.6588 19.3462
rtibia 99.7574
rfoot -11.7809 -4.04144
rtoes 2.5293
lfemur -87.367 54.91 -32.9667
ltibia 135.641
lfoot -13.3594 -12.0806
ltoes -16.1563
1890
root -1.53393 15.7694 -4.07014 164.632 148.794 181.421
lowerback 23.542 -1.2488 -4.74844
upperback 9.21833 -2.38988 0.542755
thorax -2.73516 -1.20123 3.88427
lowerneck -5.77406 -16.9637 -19.4291
upperneck 8.63479 -23.3621 17.9033
head 8.05274 -11.1218 5.98201
rclavicle -4.7758e-014 5.86415e-015
rhumerus -25.3137 28.6534 -85.0862
rradius 75.9045
rwrist 22.4744
rhand -31.927 15.041
rfingers 7.12502
rthumb -5.17826 -14.8758
lclavicle -4.7758e-014 5.86415e-015
lhumerus -33.4248 -4.44425 76.1287
lradius 83.1257
lwrist -21.386
lhand -40.8563 15.6279
lfingers 7.12502
lthumb -13.7931 45.1506
rfemur -50.4871 -26.6171 19.8486
rtibia 99.7574
rfoot -11.7543 -3.98387
rtoes 3.09543
lfemur -87.8402 55.2119 -32.8665
ltibia 135.818
lfoot -13.247 -12.0242
ltoes -15.366
1891
root -1.52718 15.7643 -4.06298 164.775 148.793 181.469
lowerback 23.4814 -1.21576 -4.7184
upperback 9.31659 -2.33155 0.557866
thorax -2.60413 -1.1766 3.8644
lowerneck -5.62593 -17.1096 -19.5212
upperneck 8.19121 -23.5681 18.2015
head 7.97637 -11.2248 6.06083
rclavicle -2.18663e-015 1.36167e-014
rhumerus -25.2743 29.1159 -85.1957
rradius 75.2101
rwrist 23.07
rhand -31.9478 14.9682
rfingers 7.12502
rthumb -5.19831 -14.9481
lclavicle -2.18663e-015 1.36167e-014
lhumerus -33.1517 -4.2483 76.1912
lradius 83.0493
lwrist -20.3121
lhand -40.7445 15.4853
lfingers 7.12502
lthumb -13.6854 45.0153
rfemur -50.6357 -26.7227 19.8372
rtibia 99.8096
rfoot -11.6176 -3.88419
rtoes 2.65912
lfemur -87.9829 55.2365 -33.0783
ltibia 135.922
lfoot -13.0588 -11.7189
ltoes -14.2133
1892
root -1.52103 15.7633 -4.05633 164.924 148.715 181.582
lowerback 23.3889 -1.18718 -4.76302
upperback 9.45987 -2.29125 0.565003
thorax -2.40249 -1.16476 3.88059
lowerneck -5.52154 -17.2607 -19.6566
upperneck 7.77989 -23.7765 18.5179
head 7.92777 -11.3264 6.14553
rclavicle -1.30204e-014 2.78299e-015
rhumerus -25.2851 29.3225 -85.3209
rradius 74.6052
rwrist 23.6565
rhand -31.8207 15.1217
rfingers 7.12502
rthumb -5.07565 -14.7975
lclavicle -1.30204e-014 2.78299e-015
lhumerus -32.7994 -3.91036 76.267
lradius 83.0281
lwrist -19.7105
lhand -40.5427 15.2788
lfingers 7.12502
lthumb -13.4909 44.8219
rfemur -50.7083 -26.8783 19.719
rtibia 99.8561
rfoot -11.5525 -3.74268
rtoes 2.31379
lfemur -88.028 55.2003 -33.3255
ltibia 136.005
lfoot -12.7763 -11.3854
ltoes -12.4155
1893
root -1.51663 15.7629 -4.05159 164.872 148.684 181.58
lowerback 23.4993 -1.17621 -4.71048
upperback 9.60213 -2.26127 0.572485
thorax -2.30587 -1.15201 3.85207
lowerneck -5.46366 -17.3884 -19.6865
upperneck 7.49679 -23.9479 18.6902
head 7.8881 -11.4098 6.17417
rclavicle -4.81059e-014 2.5345e-014
rhumerus -25.4288 29.3391 -85.6283
rradius 74.0009
rwrist 24.4012
rhand -31.6155 15.108
rfingers 7.12502
rthumb -4.87749 -14.8158
lclavicle -4.81059e-014 2.5345e-014
lhumerus -32.5039 -3.51906 76.263
lradius 83.0619
lwrist -19.4552
lhand -40.3847 15.2041
lfingers 7.12502
lthumb -13.3386 44.7571
rfemur -50.6182 -27.0051 19.6554
rtibia 99.8979
rfoot -11.4838 -3.61548
rtoes 2.25502
lfemur -87.9258 55.3931 -33.2735
ltibia 136.108
lfoot -12.4028 -11.4437
ltoes -9.54261
1894
root -1.51258 15.7606 -4.04692 164.816 148.737 181.526
lowerback 23.63 -1.14525 -4.58478
upperback 9.68589 -2.19521 0.556648
thorax -2.29177 -1.11609 3.75014
lowerneck -5.20866 -17.4649 -19.6962
upperneck 7.15006 -24.0835 18.9246
head 7.79529 -11.4873 6.24536
rclavicle -9.19379e-015 -9.83984e-015
rhumerus -25.7501 29.2482 -86.0808
rradius 73.3983
rwrist 25.0472
rhand -31.4895 14.8712
rfingers 7.12502
rthumb -4.7558 -15.0554
lclavicle -9.19379e-015 -9.83984e-015
lhumerus -32.302 -3.22699 76.1861
lradius 83.163
lwrist -19.3313
lhand -40.2152 15.1063
lfingers 7.12502
lthumb -13.1752 44.67
rfemur -50.587 -27.0284 19.6982
rtibia 99.9364
rfoot -11.4071 -3.48117
rtoes 2.1784
lfemur -87.969 55.6719 -33.2796
ltibia 136.203
lfoot -12.1523 -11.5977
ltoes -6.65515
1895
root -1.50375 15.7509 -4.04616 164.942 148.816 181.502
lowerback 23.6791 -1.10125 -4.36867
upperback 9.71222 -2.09396 0.511822
thorax -2.30972 -1.0585 3.55515
lowerneck -5.00118 -17.566 -19.8177
upperneck 6.84188 -24.2674 19.314
head 7.7709 -11.5798 6.36311
rclavicle -2.6985e-014 2.21645e-014
rhumerus -26.0587 28.9838 -86.4614
rradius 72.857
rwrist 25.4034
rhand -31.4001 15.1015
rfingers 7.12502
rthumb -4.66949 -14.8271
lclavicle -2.6985e-014 2.21645e-014
lhumerus -32.0775 -3.00439 76.1435
lradius 83.3379
lwrist -19.3752
lhand -39.7411 14.9016
lfingers 7.12502
lthumb -12.7182 44.4943
rfemur -50.8205 -27.0359 19.7899
rtibia 100.018
rfoot -11.2807 -3.35837
rtoes 2.29317
lfemur -88.4861 55.697 -33.7712
ltibia 136.303
lfoot -12.0264 -11.2047
ltoes -5.73465
1896
root -1.49314 15.7392 -4.04935 165.163 148.886 181.563
lowerback 23.6898 -1.05941 -4.1564
upperback 9.75662 -1.99597 0.421257
thorax -2.28941 -1.00268 3.31195
lowerneck -5.01819 -17.7041 -19.8965
upperneck 6.70932 -24.4816 19.6189
head 7.82996 -11.6713 6.42027
rclavicle 3.32964e-015 -9.0447e-015
rhumerus -26.2626 28.5371 -86.7965
rradius 72.4843
rwrist 25.6659
rhand -31.4746 15.8882
rfingers 7.12502
rthumb -4.74137 -14.0388
lclavicle 3.32964e-015 -9.0447e-015
lhumerus -31.7235 -2.72165 76.0947
lradius 83.4165
lwrist -19.7194
lhand -39.3367 14.768
lfingers 7.12502
lthumb -12.3283 44.3845
rfemur -51.1552 -27.0636 19.8115
rtibia 100.109
rfoot -11.0774 -3.22693
rtoes 2.81359
lfemur -89.1279 55.554 -34.5021
ltibia 136.371
lfoot -11.9354 -10.5562
ltoes -6.02833
1897
root -1.48515 15.7326 -4.04711 165.295 148.889 181.641
lowerback 23.7009 -1.0244 -4.05126
upperback 9.85151 -1.92589 0.352553
thorax -2.2044 -0.965617 3.1592
lowerneck -4.91411 -17.8337 -19.9212
upperneck 6.44409 -24.6754 19.8544
head 7.80481 -11.7666 6.46546
rclavicle -1.33186e-014 -2.98177e-016
rhumerus -26.4191 27.9602 -87.0663
rradius 72.3159
rwrist 26.1983
rhand -32.1065 16.2949
rfingers 7.12502
rthumb -5.35154 -13.6175
lclavicle -1.33186e-014 -2.98177e-016
lhumerus -31.3451 -2.38162 76.097
lradius 83.4118
lwrist -20.2295
lhand -39.1438 14.873
lfingers 7.12502
lthumb -12.1424 44.5006
rfemur -51.325 -27.1743 19.763
rtibia 100.169
rfoot -10.9007 -3.13163
rtoes 2.64021
lfemur -89.374 55.4239 -34.8526
ltibia 136.412
lfoot -11.8553 -10.2757
ltoes -6.06641
1898
root -1.47927 15.733 -4.04012 165.456 148.758 181.88
lowerback 23.6662 -0.990519 -4.20885
upperback 9.99518 -1.9078 0.299427
thorax -2.02578 -0.96413 3.18315
lowerneck -4.70853 -17.9491 -19.9228
upperneck 6.02773 -24.8359 20.0496
head 7.6985 -11.8588 6.51348
rclavicle -4.18939e-014 4.96962e-016
rhumerus -26.5863 27.1614 -87.2573
rradius 72.4773
rwrist 26.887
rhand -33.1819 16.251
rfingers 7.12502
rthumb -6.38977 -13.6326
lclavicle -4.18939e-014 4.96962e-016
lhumerus -31.0438 -1.96881 76.181
lradius 83.4968
lwrist -20.8216
lhand -39.1891 15.0857
lfingers 7.12502
lthumb -12.186 44.7107
rfemur -51.3705 -27.4112 19.4738
rtibia 100.22
rfoot -10.783 -2.92769
rtoes 2.42621
lfemur -89.2752 55.2641 -35.0669
ltibia 136.412
lfoot -11.8295 -10.2739
ltoes -5.57792
